<svg role="presentation" svg-compile="<svg xmlns=&quot;http://www.w3.org/2000/svg&quot; width=&quot;24&quot; height=&quot;24&quot; viewBox=&quot;0 0 24 24&quot;>
    <path fill=&quot;currentColor&quot; fill-rule=&quot;nonzero&quot; d=&quot;M13.073 19l-4.646 3.65A1.5 1.5 0 0 1 6 21.472V19a5 5 0 0 1-5-5V7a5 5 0 0 1 5-5h12a5 5 0 0 1 5 5v7a5 5 0 0 1-5 5h-4.927zM8 20.443L12.381 17H18a3 3 0 0 0 3-3V7a3 3 0 0 0-3-3H6a3 3 0 0 0-3 3v7a3 3 0 0 0 3 3h2v3.443z&quot;/>
</svg>
" viewBox="0 0 24 24">
    <path xmlns="http://www.w3.org/2000/svg" d="M13.073 19l-4.646 3.65A1.5 1.5 0 0 1 6 21.472V19a5 5 0 0 1-5-5V7a5 5 0 0 1 5-5h12a5 5 0 0 1 5 5v7a5 5 0 0 1-5 5h-4.927zM8 20.443L12.381 17H18a3 3 0 0 0 3-3V7a3 3 0 0 0-3-3H6a3 3 0 0 0-3 3v7a3 3 0 0 0 3 3h2v3.443z" fill-rule="nonzero" fill="currentColor"></path>
</svg>